<?xml version="1.0" standalone="no"?>
<!DOCTYPE svg PUBLIC "-//W3C//DTD SVG 20010904//EN"
 "http://www.w3.org/TR/2001/REC-SVG-20010904/DTD/svg10.dtd">
<svg version="1.0" xmlns="http://www.w3.org/2000/svg"
 width="512.000000pt" height="512.000000pt" viewBox="0 0 512.000000 512.000000"
 preserveAspectRatio="xMidYMid meet">

<g transform="translate(0.000000,512.000000) scale(0.100000,-0.100000)"
fill="#000000" stroke="none">
<path d="M1830 5114 c-514 -63 -902 -246 -1240 -584 -304 -304 -491 -669 -567
-1105 -24 -139 -24 -471 0 -610 76 -436 263 -801 567 -1105 304 -304 669 -491
1105 -567 139 -24 471 -24 610 0 275 48 530 142 733 270 l64 40 691 -691 c746
-744 729 -729 861 -753 265 -49 506 192 457 457 -24 132 -9 115 -753 861
l-691 691 40 64 c128 203 222 458 270 733 24 139 24 471 0 610 -76 436 -263
801 -567 1105 -302 303 -674 494 -1100 565 -91 16 -407 28 -480 19z m440 -220
c384 -59 724 -231 998 -506 312 -311 487 -696 522 -1148 42 -541 -181 -1088
-597 -1461 -223 -201 -536 -359 -829 -418 -202 -41 -503 -46 -681 -12 -709
138 -1257 651 -1427 1336 -40 161 -50 249 -50 435 0 186 10 274 50 435 79 319
239 600 474 835 408 408 969 592 1540 504z m1424 -3183 l139 -140 -69 -73
c-38 -41 -102 -105 -142 -143 l-73 -69 -141 141 -140 141 138 140 c77 77 141
141 144 141 3 1 68 -62 144 -138z m1194 -1205 c23 -33 27 -50 27 -106 0 -57
-4 -73 -28 -107 -55 -79 -175 -113 -252 -71 -16 9 -234 221 -483 470 l-452
453 137 142 138 142 443 -442 c243 -243 455 -460 470 -481z"/>
<path d="M1769 4705 c-354 -57 -650 -208 -898 -456 -431 -431 -579 -1063 -384
-1639 139 -411 433 -742 838 -942 76 -38 248 -94 365 -120 90 -19 135 -22 310
-22 231 0 325 14 520 81 461 157 836 532 993 993 67 195 81 289 81 520 0 175
-3 220 -22 310 -47 215 -121 394 -237 570 -235 356 -595 600 -1020 690 -131
28 -419 36 -546 15z m502 -215 c281 -57 511 -181 715 -384 203 -203 324 -429
385 -716 18 -84 22 -137 22 -270 0 -133 -4 -186 -22 -270 -61 -287 -182 -513
-385 -716 -415 -414 -1019 -526 -1558 -289 -306 135 -581 414 -712 723 -226
536 -111 1129 298 1538 335 335 800 477 1257 384z"/>
<path d="M1951 4307 c-47 -28 -63 -85 -37 -136 18 -34 54 -51 109 -51 67 0
216 -27 292 -53 263 -90 465 -270 590 -529 39 -80 54 -100 82 -113 65 -31 137
16 137 91 0 20 -21 75 -52 138 -192 386 -576 640 -1002 662 -71 4 -101 1 -119
-9z"/>
<path d="M3051 3206 c-87 -48 -50 -186 49 -186 51 0 100 49 100 99 0 75 -83
124 -149 87z"/>
</g>
</svg>
